HIERARCHY
ROOT Hips
{
	OFFSET 0.000000 0.000000 0.000000
	CHANNELS 6 Xposition Yposition Zposition Zrotation Yrotation Xrotation 
	JOINT LowerBack
	{
		OFFSET 0.000000 0.000000 0.000000
		CHANNELS 3 Zrotation Yrotation Xrotation
		JOINT Spine
		{
			OFFSET 0.028270 2.035590 -0.193380
			CHANNELS 3 Zrotation Yrotation Xrotation
			JOINT Spine1
			{
				OFFSET 0.056720 2.048850 -0.042750
				CHANNELS 3 Zrotation Yrotation Xrotation
				JOINT Neck
				{
					OFFSET 0.000000 0.000000 0.000000
					CHANNELS 3 Zrotation Yrotation Xrotation
					JOINT Neck1
					{
						OFFSET -0.054170 1.746240 0.172020
						CHANNELS 3 Zrotation Yrotation Xrotation
						JOINT Head
						{
							OFFSET 0.104070 1.761360 -0.123970
							CHANNELS 3 Zrotation Yrotation Xrotation
							End Site
							{
								OFFSET 0.000000 0.000000 0.000000
							}
						}
					}
				}
				JOINT LeftShoulder
				{
					OFFSET 0.000000 0.000000 0.000000
					CHANNELS 3 Zrotation Yrotation Xrotation
					JOINT LeftArm
					{
						OFFSET 3.362410 1.200890 -0.311210
						CHANNELS 3 Zrotation Yrotation Xrotation
						JOINT LeftForeArm
						{
							OFFSET 4.983000 -0.000000 -0.000000
							CHANNELS 3 Zrotation Yrotation Xrotation
							JOINT LeftHand
							{
								OFFSET 3.483560 -0.000000 -0.000000
								CHANNELS 3 Zrotation Yrotation Xrotation
								JOINT LeftFingerBase
								{
									OFFSET 0.000000 0.000000 0.000000
									CHANNELS 3 Zrotation Yrotation Xrotation
									JOINT LeftHandIndex1
									{
										OFFSET 0.715260 -0.000000 -0.000000
										CHANNELS 3 Zrotation Yrotation Xrotation
										End Site
										{
											OFFSET 0.000000 0.000000 0.000000
										}
									}
								}
								JOINT LThumb
								{
									OFFSET 0.000000 0.000000 0.000000
									CHANNELS 3 Zrotation Yrotation Xrotation
									End Site
									{
										OFFSET 0.000000 0.000000 0.000000
									}
								}
							}
						}
					}
				}
				JOINT RightShoulder
				{
					OFFSET 0.000000 0.000000 0.000000
					CHANNELS 3 Zrotation Yrotation Xrotation
					JOINT RightArm
					{
						OFFSET -3.136600 1.374050 -0.404650
						CHANNELS 3 Zrotation Yrotation Xrotation
						JOINT RightForeArm
						{
							OFFSET -5.241900 -0.000000 -0.000000
							CHANNELS 3 Zrotation Yrotation Xrotation
							JOINT RightHand
							{
								OFFSET -3.444170 -0.000000 -0.000000
								CHANNELS 3 Zrotation Yrotation Xrotation
								JOINT RightFingerBase
								{
									OFFSET 0.000000 0.000000 0.000000
									CHANNELS 3 Zrotation Yrotation Xrotation
									JOINT RightHandIndex1
									{
										OFFSET -0.622530 -0.000000 -0.000000
										CHANNELS 3 Zrotation Yrotation Xrotation
										End Site
										{
											OFFSET 0.000000 0.000000 0.000000
										}
									}
								}
								JOINT RThumb
								{
									OFFSET 0.000000 0.000000 0.000000
									CHANNELS 3 Zrotation Yrotation Xrotation
									End Site
									{
										OFFSET 0.000000 0.000000 0.000000
									}
								}
							}
						}
					}
				}
			}
		}
	}
}
}
MOTION
Frames: 12
Frame Time: 0.008333
1.037579 17.141990 1.848570 17.010613 -28.071842 -5.158301 -2.948754 2.151470 -3.869510 -0.171290 2.496887 -4.038791 0.695138 2.408494 -3.157141 -10.629567 10.057215 1.721547 -1.257801 -0.225212 2.562574 0.000000 0.000000 0.000000 -1.609394 7.733880 -8.842533 -96.731120 -61.081763 44.550937 178.703979 -76.153781 179.837354 11.114912 -5.333062 -0.606861 -0.042749 0.868140 -0.000000 0.000000 0.000000 0.000000 0.000000 0.000000 0.000000 -12.865150 14.993922 5.023058 3.588236 12.388005 -67.475230 -1.716650 -2.327940 -0.118357 -22.822944 8.674866 -1.892005 0.473147 -0.493613 0.000000 0.000000 0.000000 0.000000 0.000000 0.000000 0.000000 
1.022712 17.149948 1.838836 17.134678 -28.093897 -5.211279 -2.892003 2.406424 -3.804299 -0.090311 2.753521 -4.009310 1.023201 2.658515 -3.124933 -11.487810 10.261555 1.512695 -1.032571 -0.209630 2.515497 0.000000 0.000000 0.000000 -2.206435 8.186933 -8.875315 -96.907258 -60.501868 44.306119 178.631161 -75.608786 179.838940 11.016769 -5.389578 -0.606004 -0.033608 0.861727 -0.000000 0.000000 0.000000 0.000000 0.000000 0.000000 0.000000 -14.703191 15.326586 4.991959 1.810042 11.798205 -69.094070 -1.778958 -3.447736 -0.118163 -23.551719 7.735728 -1.751121 0.521021 -0.474403 0.000000 0.000000 0.000000 0.000000 0.000000 0.000000 0.000000 
1.005315 17.157475 1.828698 17.209355 -28.036670 -5.229104 -2.904827 2.624407 -3.747255 -0.030840 2.977664 -3.981902 1.306929 2.874883 -3.099247 -12.200315 10.114315 1.326948 -0.799168 -0.193996 2.476092 0.000000 0.000000 0.000000 -2.662730 8.480485 -8.939552 -97.259540 -59.861006 44.170351 178.555215 -75.042713 179.840139 10.919770 -5.481528 -0.608730 -0.024848 0.857585 -0.000000 0.000000 0.000000 0.000000 0.000000 0.000000 0.000000 -16.538895 15.340446 4.910795 1.022812 11.293212 -70.542845 -1.883700 -2.766930 -0.122670 -23.944756 6.575288 -1.527529 0.557187 -0.461315 0.000000 0.000000 0.000000 0.000000 0.000000 0.000000 0.000000 
0.985699 17.164578 1.818574 17.237497 -27.914490 -5.217752 -2.962268 2.787353 -3.705517 0.017464 3.150994 -3.950780 1.574546 3.039543 -3.044852 -12.823868 9.658208 1.142445 -0.577887 -0.179081 2.436812 0.000000 0.000000 0.000000 -3.036068 8.673294 -9.035477 -97.694766 -59.194804 44.060553 178.470687 -74.440216 179.840969 10.838780 -5.586195 -0.613455 -0.016342 0.854129 -0.000000 0.000000 0.000000 0.000000 0.000000 0.000000 0.000000 -18.230818 15.017986 4.843321 0.045107 11.288032 -72.532041 -1.997368 -2.543475 -0.123990 -23.980005 6.608865 -1.540834 0.581685 -0.471832 0.000000 0.000000 0.000000 0.000000 0.000000 0.000000 0.000000 
0.964543 17.171414 1.808889 17.220601 -27.747543 -5.182687 -3.045100 2.894271 -3.682052 0.055530 3.270757 -3.917156 1.814590 3.150148 -2.961594 -13.352640 8.947829 0.969274 -0.377949 -0.165543 2.399545 0.000000 0.000000 0.000000 -3.333972 8.779438 -9.150056 -98.145027 -58.524773 43.926405 178.380926 -73.808918 179.841404 10.786891 -5.682335 -0.619074 -0.009023 0.851012 -0.000000 0.000000 0.000000 0.000000 0.000000 0.000000 0.000000 -19.726608 14.416281 4.791993 -1.187583 11.723981 -74.931246 -2.107193 -2.793038 -0.121726 -23.629528 7.732393 -1.768134 0.593450 -0.506543 0.000000 0.000000 0.000000 0.000000 0.000000 0.000000 0.000000 
0.942646 17.178160 1.799959 17.160959 -27.562946 -5.128519 -3.138298 2.952935 -3.679510 0.079541 3.342410 -3.885506 1.997113 3.212918 -2.864899 -13.748116 8.047431 0.829349 -0.207566 -0.154202 2.369763 0.000000 0.000000 0.000000 -3.533910 8.795797 -9.267879 -98.567445 -57.858912 43.737599 178.292826 -73.164054 179.841357 10.775726 -5.754465 -0.624873 -0.004185 0.848631 -0.000000 0.000000 0.000000 0.000000 0.000000 0.000000 0.000000 -20.985184 13.616370 4.733359 -2.361867 12.432429 -77.229861 -2.207302 -2.793659 -0.118920 -22.897534 9.245094 -2.039541 0.591768 -0.556403 -0.000000 0.000000 0.000000 0.000000 0.000000 0.000000 0.000000 
0.920948 17.185039 1.792062 17.062565 -27.393184 -5.058778 -3.228511 2.977134 -3.697939 0.084009 3.377000 -3.861158 2.083265 3.239973 -2.779809 -13.963129 7.011632 0.747477 -0.070022 -0.145665 2.354122 0.000000 0.000000 0.000000 -3.601205 8.712355 -9.372575 -98.937907 -57.198265 43.480919 178.215442 -72.527748 179.840737 10.814851 -5.792783 -0.630735 -0.003168 0.847804 -0.000000 0.000000 0.000000 0.000000 0.000000 0.000000 0.000000 -22.013334 12.696227 4.616659 -2.848900 13.270390 -79.167239 -2.336159 -1.309544 -0.121023 -21.766479 10.282672 -2.154771 0.572881 -0.611083 -0.000000 0.000000 0.000000 0.000000 0.000000 0.000000 0.000000 
0.900433 17.192192 1.785341 16.929642 -27.279694 -4.978722 -3.309844 2.970402 -3.739670 0.069905 3.378134 -3.846279 2.077193 3.236297 -2.709876 -13.987115 5.956544 0.722495 0.017141 -0.140964 2.351972 0.000000 0.000000 0.000000 -3.527534 8.549219 -9.464005 -99.256591 -56.530668 43.140473 178.149002 -71.908576 179.839429 10.910640 -5.799188 -0.637259 -0.006085 0.848733 -0.000000 0.000000 0.000000 0.000000 0.000000 0.000000 0.000000 -22.677509 11.735722 4.469455 -3.211418 14.248535 -80.026150 -2.429346 0.663441 -0.124267 -20.520591 10.945754 -2.163919 0.548224 -0.662402 -0.000000 0.000000 0.000000 0.000000 0.000000 0.000000 0.000000 
0.881978 17.199765 1.779767 16.768952 -27.261064 -4.891277 -3.375173 2.939312 -3.804378 0.041397 3.352288 -3.840715 1.992658 3.208781 -2.655676 -13.838143 4.927558 0.745700 0.054324 -0.139963 2.361170 0.000000 0.000000 0.000000 -3.323907 8.325861 -9.540440 -99.527519 -55.854898 42.713224 178.093775 -71.310324 179.837327 11.066421 -5.780132 -0.645246 -0.012897 0.851668 -0.000000 0.000000 0.000000 0.000000 0.000000 0.000000 0.000000 -22.987915 10.771972 4.296323 -3.559203 15.345193 -80.213065 -2.508336 2.905191 -0.128148 -19.303230 11.477924 -2.136679 0.518898 -0.712799 -0.000000 0.000000 0.000000 0.000000 0.000000 0.000000 0.000000 
0.866205 17.207806 1.775191 16.585691 -27.367942 -4.798795 -3.428610 2.892876 -3.889327 0.000779 3.309057 -3.847812 1.843450 3.167416 -2.633859 -13.517513 4.026257 0.823566 0.047488 -0.142419 2.383980 0.000000 0.000000 0.000000 -2.990094 8.045629 -9.594934 -99.770201 -55.159432 42.208699 178.050016 -70.741233 179.834262 11.281042 -5.750054 -0.655893 -0.023324 0.857269 -0.000000 0.000000 0.000000 0.000000 0.000000 0.000000 0.000000 -22.975292 9.902538 4.087217 -3.773936 16.388656 -79.245232 -2.561835 5.603616 -0.134420 -18.430729 11.539440 -2.055944 0.496104 -0.752325 -0.000000 0.000000 0.000000 0.000000 0.000000 0.000000 0.000000 
0.853745 17.216404 1.771290 16.382230 -27.625102 -4.700478 -3.468570 2.836311 -3.990757 -0.045017 3.254364 -3.866548 1.659273 3.117568 -2.644178 -13.065249 3.253737 0.944785 0.007622 -0.147513 2.417818 0.000000 0.000000 0.000000 -2.557353 7.727162 -9.626455 -100.000707 -54.450442 41.642636 178.015290 -70.198770 179.830179 11.546518 -5.726604 -0.670503 -0.036524 0.865783 -0.000000 0.000000 0.000000 0.000000 0.000000 0.000000 0.000000 -22.715116 9.129640 3.839745 -3.855967 17.371597 -77.666493 -2.614159 8.705665 -0.143698 -17.993403 11.336033 -1.977904 0.480246 -0.783692 -0.000000 0.000000 0.000000 0.000000 0.000000 0.000000 0.000000 
0.844641 17.225485 1.767395 16.169752 -28.046095 -4.602070 -3.499074 2.771472 -4.096070 -0.088207 3.191178 -3.895676 1.476248 3.061266 -2.691664 -12.531422 2.620275 1.102883 -0.047260 -0.154092 2.461466 0.000000 0.000000 0.000000 -2.068813 7.390424 -9.628522 -100.221300 -53.741991 41.024592 177.985614 -69.677232 179.824991 11.859104 -5.722691 -0.690286 -0.051614 0.877194 -0.000000 0.000000 0.000000 0.000000 0.000000 0.000000 0.000000 -22.326634 8.468976 3.538858 -3.687078 18.270597 -75.801168 -2.676940 12.324131 -0.156894 -18.006554 10.962506 -1.921148 0.469764 -0.808678 -0.000000 0.000000 0.000000 0.000000 0.000000 0.000000 0.000000 
